<?xml version="1.0" standalone="no"?>
<!DOCTYPE svg PUBLIC "-//W3C//DTD SVG 20010904//EN"
 "http://www.w3.org/TR/2001/REC-SVG-20010904/DTD/svg10.dtd">
<svg version="1.0" xmlns="http://www.w3.org/2000/svg"
 width="140.000000pt" height="140.000000pt" viewBox="0 0 140.000000 140.000000"
 preserveAspectRatio="xMidYMid meet">

<g transform="translate(0.000000,140.000000) scale(0.100000,-0.100000)"
fill="#00cec9" stroke="none">
<path d="M555 1384 c-40 -7 -111 -34 -165 -60 -79 -39 -110 -62 -181 -133 -71
-71 -94 -102 -133 -181 -50 -102 -76 -208 -76 -310 0 -102 26 -208 76 -310 39
-79 62 -110 133 -181 71 -71 102 -94 181 -133 102 -50 208 -76 310 -76 102 0
208 26 310 76 79 39 110 62 181 133 71 71 94 102 133 181 101 206 101 414 0
620 -39 79 -62 110 -133 181 -71 71 -102 94 -181 133 -148 72 -294 92 -455 60z"/>
</g>
</svg>
