<?xml version="1.0" standalone="no"?>
<!DOCTYPE svg PUBLIC "-//W3C//DTD SVG 20010904//EN"
 "http://www.w3.org/TR/2001/REC-SVG-20010904/DTD/svg10.dtd">
<svg version="1.0" xmlns="http://www.w3.org/2000/svg"
 width="150.000000pt" height="150.000000pt" viewBox="0 0 150.000000 150.000000"
 preserveAspectRatio="xMidYMid meet">

<g transform="translate(0.000000,150.000000) scale(0.100000,-0.100000)"
fill="#e84393" stroke="none">
<path d="M647 1221 l-99 -269 -269 -99 c-148 -54 -269 -100 -269 -103 0 -3
121 -49 269 -103 l269 -99 99 -269 c54 -148 100 -269 103 -269 3 0 49 121 103
269 l99 269 269 99 c148 54 269 100 269 103 0 3 -121 49 -269 103 l-269 99
-99 269 c-54 148 -100 269 -103 269 -3 0 -49 -121 -103 -269z"/>
</g>
</svg>
