<svg width="94" height="94" viewBox="0 0 94 94" fill="none" xmlns="http://www.w3.org/2000/svg">
<path d="M68.7309 1.01195C53.6408 6.08395 5.91814 24.5033 3.93756 25.927C-0.872427 29.5753 -1.34399 36.6939 2.90011 41.143C4.2205 42.4778 4.40913 46.0371 4.59776 65.4352L4.69207 88.2147L7.33285 90.6173L9.87931 93.1088L47.4161 93.3757C88.4424 93.6427 89.1026 93.6427 92.0264 88.4817C94.0069 85.0114 93.9126 47.6388 91.932 44.2574C89.2913 39.4524 87.7822 39.2744 57.9792 39.2744C42.9833 39.2744 30.6283 39.0075 30.6283 38.5625C30.6283 38.2066 41.38 33.9355 54.3953 29.0414C67.5048 24.1474 79.3883 19.2534 80.8031 18.0966C84.2927 15.3381 85.1415 10.8 82.9723 6.3509C80.1429 0.300093 75.6158 -1.3016 68.7309 1.01195ZM77.6907 8.21953C79.577 11.3339 78.4452 15.0712 75.3329 15.783C73.0693 16.3169 60.4313 12.3127 59.3939 10.8C58.7337 9.73223 70.5229 5.55006 73.5409 5.72802C75.4272 5.817 76.7476 6.61785 77.6907 8.21953ZM59.2996 16.5839C62.5062 17.9186 64.4868 19.2534 64.0153 19.6983C63.5437 20.1432 61.0915 21.211 58.5451 22.1898L53.9237 23.8804L47.0388 21.122C43.172 19.6093 40.0596 18.0966 40.0596 17.8296C40.0596 16.6729 49.1137 13.5585 51.3772 13.9144C52.6976 14.0924 56.2815 15.2491 59.2996 16.5839ZM41.2857 24.7703C43.172 25.4821 44.7753 26.4609 44.7753 26.8169C44.7753 27.1728 42.3232 28.3296 39.3994 29.3974L33.9293 31.266L27.7989 28.8635C24.4036 27.4397 21.3856 26.016 21.1969 25.5711C20.914 25.0372 23.0832 23.7915 25.9126 22.7237C30.7226 20.944 31.3828 20.855 34.4008 22.1008C36.1928 22.8127 39.3051 23.9694 41.2857 24.7703ZM20.7254 31.7109L26.3842 34.1134L19.122 36.7829C11.0111 39.8083 7.99304 39.7193 6.2954 36.16C4.59776 32.6007 4.8807 31.355 8.08735 29.5753C11.294 27.7067 11.294 27.7067 20.7254 31.7109ZM23.5548 49.9523C18.4618 54.8463 17.613 55.2912 13.9348 55.2912H9.87931V51.0201C9.87931 48.7065 10.3509 46.304 11.0111 45.6811C11.7656 44.9693 15.2552 44.6133 20.631 44.6133H29.1193L23.5548 49.9523ZM49.491 45.4142C49.491 45.7701 47.2275 48.1726 44.398 50.7531C39.2108 55.2912 39.2108 55.2912 33.0804 55.2912C29.6851 55.2912 26.8557 55.0243 26.8557 54.6684C26.8557 54.3124 29.0249 51.9099 31.76 49.3294L36.6643 44.6133H43.0777C46.5673 44.6133 49.491 44.9693 49.491 45.4142ZM65.9958 49.9523L60.4313 55.2912H54.4896C51.1886 55.2912 48.5478 55.0243 48.5478 54.6684C48.5478 54.3124 50.717 51.9099 53.4521 49.3294L58.3564 44.6133H64.9584H71.5603L65.9958 49.9523ZM86.0846 45.6811C86.7448 46.304 87.2164 48.7065 87.2164 51.0201V55.2912H78.2566C73.3523 55.2912 69.2968 55.0243 69.2968 54.6684C69.2968 54.3124 71.466 51.9099 74.2011 49.3294C78.068 45.6811 79.7656 44.6133 82.0291 44.6133C83.6325 44.6133 85.4244 45.0583 86.0846 45.6811ZM87.9709 72.9098C87.7822 81.719 87.3107 85.7232 86.3675 86.702C85.2358 88.0368 81.3689 88.2147 48.9251 88.2147C17.4244 88.2147 12.6144 88.0368 11.3883 86.791C10.1623 85.7232 9.87931 83.1427 9.87931 72.9987V60.6302H49.1137H88.3481L87.9709 72.9098Z" fill="#ffb43a"/>
<path d="M17.4244 73.5326C16.4813 74.6004 16.4813 75.1343 17.4244 76.2021C18.4619 77.3589 22.9889 77.5369 48.0763 77.5369C73.1637 77.5369 77.6907 77.3589 78.7282 76.2021C79.6713 75.1343 79.6713 74.6004 78.7282 73.5326C77.6907 72.3759 73.1637 72.1979 48.0763 72.1979C22.9889 72.1979 18.4619 72.3759 17.4244 73.5326Z" fill="#ffb43a"/>
</svg>
